<?xml version="1.0" encoding="utf-8"?>
<!-- Generator: Adobe Illustrator 22.0.1, SVG Export Plug-In . SVG Version: 6.00 Build 0)  -->
<svg version="1.1" id="Calque_1" xmlns="http://www.w3.org/2000/svg" xmlns:xlink="http://www.w3.org/1999/xlink" x="0px" y="0px"
	 viewBox="0 0 1000 1000" style="enable-background:new 0 0 1000 1000;" xml:space="preserve">
<style type="text/css">
	.st0{display:none;}
	.st1{display:inline;fill:#FCF9F0;}
	.st2{display:inline;fill:#E66D73;}
	.st3{display:inline;fill:#CC4D5D;}
	.st4{display:inline;fill:none;stroke:#F9274C;stroke-width:46;stroke-miterlimit:10;}
	.st5{display:inline;}
	.st6{fill:#282B36;}
	.st7{fill:#F1F79D;}
	.st8{fill:#F581C0;}
</style>
<g class="st0">
	<path class="st1" d="M950,498.5c0-66.4-66.5-123.8-169.7-159.4c23.1-113,3.5-195.7-56.1-230.1c-57.5-33.2-140.5-4.3-222.8,67.4
		c-85.7-76.1-167.8-99.3-227.4-64.8C216.4,145,200,231.3,221,338.4c-101.1,35.2-171,94-171,160.1c0,68,66.4,131.4,171,167.2
		c-20.9,105.2-3.7,190,53.5,223c58.9,34,146.6,10.5,229.9-62.3c81.2,69.8,163.2,97.3,220.4,64.2c58.8-34.1,76.7-124.6,55.2-233.1
		C889,621.5,950,567.4,950,498.5z M749.3,628.5c-4.8,1.6-9.8,3.1-14.9,4.6c1.8,7.3,3.4,14.4,4.8,21.4
		c18.1,91.4,4.2,166.5-38.7,191.3c-41.5,24-108.6,0.4-176.5-58c-7.4-6.4-14.6-12.9-21.6-19.7c-5.6,5.4-11.1,10.5-16.7,15.4
		c-70.1,61.3-142.2,86.7-185.1,62c-41.5-24-54.6-93.9-37.9-181.9c1.8-9.6,3.9-19.1,6.3-28.5c-7.3-2.1-14.5-4.3-21.6-6.8
		c-88.1-30.1-146.2-79.8-146.2-129.3c0-48,54-94.2,138.7-123.7c9.5-3.3,19.3-6.4,29.6-9.3c-2.2-8.8-4.2-17.6-5.9-26.5
		c-17.5-89.6-5.2-161.2,36.5-185.3c43.4-25.1,115.8,1.9,188,65.9c4.5,4,8.9,8.1,13.2,12.2c6.5-6.3,13.1-12.3,19.9-18.3
		c68.9-59.9,137.1-85,178.8-61c43.5,25.1,56.2,101.2,36.7,195.8c-1.2,5.9-2.5,11.7-4,17.5c8.6,2.5,17.2,5.2,25.7,8.1l0,0
		c86.3,29.7,142.1,76.3,142.1,124.4C900.5,549.1,840.9,598.1,749.3,628.5z"/>
	<path class="st2" d="M758.4,374.5L758.4,374.5c-8.5-2.9-17.1-5.6-25.7-8.1c1.4-5.8,2.8-11.7,4-17.5c19.5-94.5,6.7-170.7-36.7-195.8
		c-41.7-24-109.9,1-178.8,61c-6.8,5.9-13.4,12-19.9,18.3c-4.3-4.2-8.8-8.2-13.2-12.2c-72.2-64.1-144.5-91.1-188-65.9
		c-41.7,24.1-54,95.7-36.5,185.3c1.7,8.9,3.7,17.7,5.9,26.5c-10.2,2.9-20.1,6-29.6,9.3c-84.6,29.5-138.7,75.7-138.7,123.7
		c0,49.5,58,99.2,146.2,129.3c7.1,2.4,14.4,4.7,21.6,6.8c-2.4,9.5-4.5,19-6.3,28.5c-16.7,88-3.7,158,37.9,181.9
		c42.9,24.7,114.9-0.7,185.1-62c5.5-4.8,11.1-10,16.7-15.4c7,6.8,14.2,13.3,21.6,19.7c67.9,58.5,135,82.1,176.5,58
		c42.9-24.8,56.8-99.9,38.7-191.3c-1.4-7-3-14.1-4.8-21.4c5.1-1.5,10-3,14.9-4.6c91.6-30.4,151.2-79.4,151.2-129.6
		C900.5,450.7,844.7,404.2,758.4,374.5z M543.6,239.7c59-51.4,114.2-71.6,139.3-57.1h0c26.8,15.4,37.2,77.7,20.4,159.3
		c-1.1,5.3-2.3,10.6-3.6,15.9c-33.2-7.7-69.2-13.3-106.9-16.9c-22-31.3-44.7-59.7-67.6-84.3C531.2,250.8,537.3,245.2,543.6,239.7z
		 M337.3,539.8c7.2,14,14.8,27.8,22.7,41.4c8,13.9,16.4,27.6,25.1,41c-26.2-2.9-50.9-6.9-73.7-11.8
		C318.4,587.6,327.1,563.9,337.3,539.8z M337.2,459.5c-9.9-23.6-18.5-46.8-25.4-69.2c22.8-5.1,47.1-9.3,72.5-12.4
		c-8.5,13.2-16.7,26.7-24.5,40.3C351.9,431.8,344.4,445.6,337.2,459.5z M355.4,499.7c10.5-21.9,21.9-43.4,34-64.4v0
		c12.1-21,25.1-41.6,38.8-61.7c23.8-1.8,48.1-2.7,72.8-2.7c24.7,0,49.2,0.9,72.9,2.8c13.6,20,26.4,40.5,38.5,61.5
		c12.2,21,23.7,42.4,34.5,64.1c-10.7,22-22.1,43.5-34.3,64.7h0c-12.1,21-24.9,41.7-38.3,61.9c-23.7,1.7-48.2,2.6-73.2,2.6
		c-24.9,0-49.1-0.8-72.4-2.3c-13.8-20.2-26.8-40.8-39.1-62C377.3,543.1,365.9,521.6,355.4,499.7z M642,581
		c8-13.9,15.8-28.1,23.2-42.3h0c10.7,24.4,19.7,47.9,26.8,70.3c-23.2,5.3-48.2,9.5-74.6,12.7C625.9,608.2,634.1,594.7,642,581z
		 M664.9,459.6c-7.4-14-15.1-27.9-23-41.6c-7.8-13.5-15.9-26.8-24.3-40c25.5,3.2,49.9,7.5,72.9,12.7
		C683.6,412.8,675,435.9,664.9,459.6z M501.3,281c15.7,17.1,31.5,36.1,47,56.8c-31.5-1.5-63-1.5-94.5,0
		C469.4,317.3,485.3,298.3,501.3,281z M317.2,183.6c26.7-15.5,85.9,6.6,148.2,61.9c4,3.5,8,7.2,12,11.1
		c-23.2,24.9-46.2,53.3-68.1,84.3c-37.6,3.5-73.6,9.1-106.7,16.6c-2-8.2-3.9-16.4-5.5-24.6v0C282.1,256.1,292.1,198.2,317.2,183.6z
		 M278.2,602.1c-6.6-1.9-13.2-4-19.7-6.2c-39-13.3-71.2-30.6-93.2-49.5c-19.8-17-29.8-33.8-29.8-47.5c0-29.1,43.4-66.2,115.8-91.5
		c9.1-3.2,18.3-6,27.5-8.7c10,32.5,23.1,66.5,39,100.9C301.6,534.6,288.3,569.2,278.2,602.1z M463.2,757.7
		c-31,27.1-62.1,46.3-89.5,56l0,0c-24.6,8.7-44.2,8.9-56.1,2.1c-25.2-14.5-35.7-70.7-21.4-146c1.7-8.9,3.6-17.7,5.8-26.5
		c32.7,7.2,69,12.5,107.7,15.6c22.1,31.1,45.3,59.7,68.6,84.8C473.5,748.5,468.4,753.2,463.2,757.7z M502.2,719.1
		c-16.2-17.5-32.3-36.8-48.1-57.6c15.3,0.6,30.9,0.9,46.8,0.9c16.3,0,32.4-0.4,48.2-1.1C533.6,682.6,517.9,701.9,502.2,719.1z
		 M709.6,766.6c-4.8,25.7-14.3,42.8-26.2,49.6c-25.2,14.6-79.1-4.4-137.1-54.4c-6.7-5.7-13.4-11.9-20.1-18.3
		c22.5-24.6,45-53.3,67-85.1c38.6-3.4,75.1-9,108.3-16.7c1.6,6.6,3.1,13,4.3,19.3v0C713.7,701.5,714.9,738.1,709.6,766.6z
		 M738.5,596.1L738.5,596.1c-4.4,1.4-8.9,2.8-13.4,4.2c-10.1-32-23.8-66.1-40.5-101.3c15.9-34.3,29.1-68,38.9-99.8
		c8.2,2.4,16.1,4.9,23.8,7.5c74,25.5,119.1,63.1,119.1,92.1C866.4,529.8,817.7,569.9,738.5,596.1z"/>
	<path class="st1" d="M384.3,377.9c-25.3,3.2-49.7,7.3-72.5,12.4c6.9,22.4,15.5,45.6,25.4,69.2c7.2-14,14.7-27.7,22.6-41.3
		C367.6,404.6,375.8,391.2,384.3,377.9z"/>
	<path class="st3" d="M428.5,626.1c23.3,1.5,47.5,2.3,72.4,2.3c25,0,49.5-0.9,73.2-2.6c13.4-20.2,26.2-40.8,38.3-61.9h0
		c12.2-21.2,23.7-42.7,34.3-64.7c-10.8-21.7-22.3-43.1-34.5-64.1c-12.1-20.9-25-41.5-38.5-61.5c-23.8-1.8-48.2-2.8-72.9-2.8
		c-24.6,0-49,0.9-72.8,2.7c-13.7,20.1-26.6,40.6-38.8,61.7v0c-12.1,21-23.5,42.5-34,64.4c10.5,21.9,21.9,43.4,34.1,64.4
		C401.7,585.2,414.7,605.9,428.5,626.1z"/>
	<path class="st1" d="M665.2,538.6L665.2,538.6C657.8,552.9,650,567,642,581c-7.9,13.7-16.1,27.3-24.5,40.7
		c26.4-3.2,51.4-7.4,74.6-12.7C684.9,586.5,675.9,563,665.2,538.6z"/>
	<path class="st1" d="M385,622.2c-8.7-13.5-17.1-27.2-25.1-41c-7.9-13.6-15.4-27.4-22.7-41.4c-10.2,24.1-18.9,47.8-25.9,70.6
		C334.1,615.4,358.8,619.3,385,622.2z"/>
	<path class="st1" d="M699.6,357.8c1.3-5.3,2.5-10.6,3.6-15.9c16.8-81.6,6.4-143.9-20.4-159.3h0c-25.1-14.5-80.3,5.8-139.3,57.1
		c-6.3,5.5-12.4,11.1-18.4,16.9c22.8,24.6,45.6,53,67.6,84.3C630.5,344.5,666.5,350.2,699.6,357.8z"/>
	<path class="st1" d="M617.6,378c8.4,13.1,16.5,26.5,24.3,40c7.9,13.7,15.6,27.6,23,41.6c10.1-23.7,18.7-46.7,25.6-68.8
		C667.5,385.5,643.1,381.2,617.6,378z"/>
	<path class="st1" d="M705.7,661.1c-1.2-6.3-2.7-12.8-4.3-19.3c-33.1,7.7-69.6,13.3-108.3,16.7c-22,31.8-44.5,60.4-67,85.1
		c6.7,6.5,13.4,12.6,20.1,18.3c58.1,50,112,68.9,137.1,54.4c11.8-6.9,21.4-24,26.2-49.6C714.9,738.1,713.7,701.5,705.7,661.1
		L705.7,661.1z"/>
	<path class="st1" d="M500.9,662.5c-15.9,0-31.5-0.3-46.8-0.9c15.8,20.8,31.9,40.1,48.1,57.6c15.6-17.2,31.4-36.6,46.9-57.7
		C533.3,662.1,517.2,662.5,500.9,662.5z"/>
	<path class="st1" d="M747.3,406.8c-7.6-2.6-15.6-5.1-23.8-7.5c-9.8,31.8-23,65.4-38.9,99.8c16.7,35.2,30.4,69.2,40.5,101.3
		c4.6-1.4,9.1-2.8,13.4-4.2h0c79.1-26.2,127.8-66.3,127.8-97.2C866.4,469.9,821.3,432.2,747.3,406.8z"/>
	<path class="st1" d="M302.1,643.3c-2.2,8.8-4.1,17.6-5.8,26.5c-14.3,75.3-3.8,131.4,21.4,146c11.8,6.8,31.4,6.6,56.1-2.1l0,0
		c27.4-9.7,58.5-28.9,89.5-56c5.2-4.5,10.3-9.2,15.2-14c-23.3-25-46.5-53.7-68.6-84.8C371.1,655.8,334.9,650.6,302.1,643.3z"/>
	<path class="st1" d="M548.3,337.8c-15.5-20.7-31.3-39.7-47-56.8c-16,17.3-31.9,36.3-47.4,56.8C485.3,336.3,516.8,336.3,548.3,337.8
		z"/>
	<path class="st1" d="M297.1,332.8c1.6,8.3,3.5,16.5,5.5,24.6c33.1-7.5,69.1-13.1,106.7-16.6c21.9-30.9,44.9-59.3,68.1-84.3
		c-4-3.8-8-7.5-12-11.1c-62.3-55.3-121.4-77.4-148.2-61.9C292.1,198.2,282.1,256.1,297.1,332.8L297.1,332.8z"/>
	<path class="st1" d="M278.7,398.8c-9.3,2.6-18.4,5.5-27.5,8.7c-72.4,25.2-115.8,62.4-115.8,91.5c0,13.7,10,30.5,29.8,47.5
		c22.1,18.9,54.2,36.2,93.2,49.5c6.5,2.2,13.1,4.3,19.7,6.2c10.1-32.9,23.4-67.5,39.4-102.4C301.8,465.3,288.7,431.3,278.7,398.8z"
		/>
</g>
<g class="st0">
	<ellipse class="st4" cx="502" cy="500" rx="376.7" ry="148.5"/>
	<ellipse transform="matrix(0.5 -0.866 0.866 0.5 -182.0127 684.7448)" class="st4" cx="502" cy="500" rx="376.7" ry="148.5"/>
	<ellipse transform="matrix(0.866 -0.5 0.5 0.866 -182.7441 317.9847)" class="st4" cx="502" cy="500" rx="148.5" ry="376.7"/>
</g>
<g class="st0">
	<path class="st5" d="M458,456.1c-4-4-9.9-4-13.9,0L407,493.2c-2,2-3,4.5-3,6.9c0,2.5,1,4.9,3,6.9l37.1,37.1c2,2,4.5,3,6.9,3
		s4.9-1,6.9-3c4-4,4-9.9,0-13.9l-30.2-30.2L458,470C461.9,466.5,461.9,460.1,458,456.1z"/>
	<path class="st5" d="M543.1,470l30.2,30.2l-30.2,30.2c-4,4-4,9.9,0,13.9c2,2,4.5,3,6.9,3s4.9-1,6.9-3l37.1-37.1c4-4,4-9.9,0-13.9
		l-37.1-37.1c-4-4-9.9-4-13.9,0C539.1,460.1,539.1,466.5,543.1,470z"/>
	<path class="st5" d="M501,460.6l-19.8,74.7c-1.5,5.4,2,10.9,6.9,11.9c1,0,1.5,0.5,2.5,0.5c4.5,0,8.4-3,9.4-7.4l19.8-74.7
		c1.5-5.4-2-10.9-6.9-11.9C507.4,452.2,502,455.1,501,460.6z"/>
</g>
<g>
	<path class="st6" d="M810.7,358c-12.4-4.9-25.5-9.5-39-13.7c3.1-13.9,5.7-27.4,7.7-40.6c14.3-96.2-4.4-164.6-52.8-192.5
		c-14.9-8.6-31.7-12.9-50.1-12.9c-41.3,0-90.3,21.5-143,63.4c-10.5,8.3-20.9,17.3-31.4,27c-10.4-9.6-20.9-18.6-31.4-27
		c-52.7-41.9-101.8-63.4-143-63.4c-18.4,0-35.2,4.3-50.1,12.9c-48.4,28-67.2,96.3-52.8,192.5c2,13.2,4.5,26.8,7.7,40.6
		c-13.6,4.2-26.6,8.8-39,13.7C102.8,393.7,53,444.1,53,500c0,55.9,49.8,106.3,140.3,142c12.4,4.9,25.5,9.5,39,13.7
		c-3.1,13.9-5.7,27.4-7.7,40.6c-14.3,96.2,4.4,164.6,52.8,192.5c48.4,28,117,10,193.1-50.5c10.5-8.3,20.9-17.3,31.4-27
		c10.4,9.6,20.9,18.6,31.4,27c76.1,60.5,144.7,78.5,193.1,50.5c48.4-28,67.2-96.3,52.8-192.5c-2-13.2-4.5-26.8-7.7-40.6
		c13.6-4.2,26.6-8.8,39-13.7C901.2,606.3,951,555.9,951,500C951,444.1,901.2,393.7,810.7,358z M705.2,608.8
		c-2.3,4.3-4.7,8.6-7.3,12.7c-14.7,23.8-33.5,44.8-55.5,61.9c-16,12.4-33.6,22.9-52.5,30.8c-25.5,10.8-53.3,17.1-82.4,18.1
		c-2.6,0.1-5.2,0.1-7.8,0.1c-1.1,0-2.1,0-3.2,0c-28.3-0.4-55.4-5.9-80.5-15.5c-21.8-8.4-42-20-60-34.2
		c-21.9-17.3-40.7-38.4-55.2-62.3c-1.3-2.1-2.5-4.3-3.7-6.4c-13.3-23.6-22.6-49.6-27-77.4c-1.9-11.9-2.9-24.2-2.9-36.6
		c0-12.5,1-24.7,2.9-36.6c4.4-27.7,13.7-53.8,27-77.4c1.2-2.2,2.5-4.3,3.7-6.4c14.5-23.9,33.3-45,55.2-62.3
		c18-14.2,38.2-25.8,60-34.2c25-9.7,52.2-15.2,80.5-15.5c1.1,0,2.1,0,3.2,0c2.6,0,5.2,0.1,7.8,0.1c29.1,1,56.9,7.3,82.4,18.1
		c18.9,8,36.5,18.4,52.5,30.8c22,17.1,40.8,38.1,55.5,61.9c2.6,4.2,5,8.4,7.3,12.7c13,24.5,21.8,51.7,25.4,80.4
		c1.1,9.3,1.7,18.8,1.7,28.4c0,9.6-0.6,19.1-1.7,28.4C727,557.2,718.3,584.3,705.2,608.8z M565.5,202.1
		c42.7-34,81.9-52.1,110.6-52.1c9.4,0,17.6,1.9,24.5,5.9c27.9,16.1,38.2,68.5,27.6,140.1c-1.4,9.2-3.1,18.6-5.1,28.2
		c-6.9-8.8-14.4-17.2-22.4-25.2c-42.9-42.9-97-70.3-155.7-79.7C551.9,213.3,558.7,207.5,565.5,202.1z M303.3,155.9
		c27.9-16.1,78.5,1.1,135.1,46.2c6.6,5.2,13.2,10.8,19.8,16.6c-60.2,8.7-115.7,36.5-159.5,80.3c-6.6,6.6-12.9,13.6-18.8,20.7
		c-1.6-8-3-15.9-4.2-23.7C265.1,224.4,275.4,172,303.3,155.9z M212.3,593.9c-67.4-26.6-107.6-61.7-107.6-93.9
		c0-32.3,40.2-67.4,107.6-93.9c7.1-2.8,14.5-5.5,22-8c-12.3,32.1-18.8,66.5-18.8,102c0,35.4,6.4,69.9,18.8,102
		C226.7,599.4,219.4,596.7,212.3,593.9z M438.5,797.9c-42.7,34-81.9,52.1-110.6,52.1c-9.4,0-17.6-1.9-24.5-5.9
		c-27.9-16.1-38.2-68.5-27.6-140.1c1.2-7.8,2.6-15.7,4.2-23.7c5.9,7.2,12.2,14.1,18.8,20.7c43.8,43.8,99.3,71.5,159.5,80.3
		C451.7,787.1,445.1,792.6,438.5,797.9z M700.7,844.1c-6.9,4-15.1,5.9-24.5,5.9c-28.7,0-67.9-18.2-110.6-52.1
		c-6.8-5.4-13.7-11.2-20.5-17.2c58.7-9.3,112.8-36.8,155.7-79.7c8-8,15.5-16.4,22.4-25.2c2,9.6,3.7,19,5.1,28.2
		C738.9,775.6,728.6,828,700.7,844.1z M791.7,593.9c-8.7,3.4-17.8,6.7-27.2,9.8C777.3,571.1,784,536.1,784,500
		c0-36.1-6.7-71.1-19.4-103.7c9.4,3.1,18.5,6.3,27.2,9.8c67.4,26.6,107.6,61.7,107.6,93.9C899.3,532.3,859.1,567.4,791.7,593.9z"/>
	<path class="st7" d="M436.4,560.8c3.2,0,6.4-1.3,8.9-3.8c5.1-5.1,5.1-12.8,0-17.9l-39-39l39-39c5.1-4.5,5.1-12.8,0-17.9
		c-5.1-5.1-12.8-5.1-17.9,0l-47.9,47.9c-2.6,2.6-3.8,5.8-3.8,8.9c0,3.2,1.3,6.4,3.8,8.9l47.9,47.9
		C430,559.5,433.2,560.8,436.4,560.8z"/>
	<path class="st7" d="M573.1,443.2c-5.1-5.1-12.8-5.1-17.9,0c-5.1,5.1-5.1,13.4,0,17.9l39,39l-39,39c-5.1,5.1-5.1,12.8,0,17.9
		c2.6,2.6,5.8,3.8,8.9,3.8c3.2,0,6.4-1.3,8.9-3.8L621,509c5.1-5.1,5.1-12.8,0-17.9L573.1,443.2z"/>
	<path class="st7" d="M500.9,449l-25.6,96.5c-1.9,7,2.6,14.1,8.9,15.3c1.3,0,1.9,0.6,3.2,0.6c5.8,0,10.9-3.8,12.1-9.6l25.6-96.5
		c1.9-7-2.6-14.1-8.9-15.3C509.2,438.1,502.2,442,500.9,449z"/>
	<path class="st7" d="M654.9,438.8c-7,1.9-10.2,8.9-8.3,16c2.7,8.8,4.6,17.8,5.7,26.8c1.5,12.3,1.4,24.8-0.1,37
		c-3.9,31.4-17.3,61.6-39.5,85.7c-6.5,7.1-13.6,13.4-21.2,19.1c-8.3,6.1-17.1,11.4-26.4,15.8c-29.8,14-64,18.4-96.8,11.1
		c-11.8-2.5-23.1-6.3-33.7-11.4c-6.6-3.1-12.9-6.7-19-10.7c-27.2-18.1-48.5-44.7-59.8-76.2c-5-13.8-7.8-28.1-8.7-42.5
		c-0.4-6.3-0.3-12.6,0.1-18.9c2.2-32.4,14.6-64,36-89.4c9.1-10.8,19.8-20.1,31.4-27.8c7.1-4.7,14.5-8.8,22.3-12.3
		c33.8-15.1,72.8-18.4,108.6-7.2c6.4,1.9,14.1-1.9,16-8.3c1.9-7-1.9-14.1-8.3-16c-35.8-11.1-73.8-10.1-108.6,1.2
		c-22.9,7.5-44.4,19.4-62.7,35.3c-6.6,5.7-12.7,11.8-18.4,18.5c-19.1,22.6-32,49.3-38.2,77.4c-5.5,25-5.7,51.1-0.1,76.6
		c1.6,7.3,3.7,14.6,6.3,21.8c10.2,28.9,27.8,54.2,50.3,73.9c18.3,16,39.8,28.3,63.2,35.8c5.7,1.8,11.6,3.4,17.5,4.7
		c12.1,2.6,24.3,3.8,37.1,3.8c20.8,0,41.4-3.7,60.9-10.6c20.6-7.4,39.9-18.5,56.7-33.1c4.9-4.3,9.7-8.9,14.1-13.8
		c23.3-25.3,38.4-56.7,44.3-89.8c3.7-20.5,3.8-41.6,0.1-62.3c-1.3-7.5-3.1-14.9-5.4-22.3C669,440.7,661.9,436.8,654.9,438.8z"/>
	<path class="st8" d="M589.5,373.7c-2.6,1.6-5.3,3.1-8.1,4.4l-14.1,6.4l14.1,6.4c14.1,6.4,24.9,17.3,31.3,31.3l6.4,14.1l3.9-8.6
		l2.5-5.5c6.4-14.1,17.3-24.9,31.3-31.3l3.5-1.6l10.5-4.8l-14.1-6.4c-1.6-0.7-3.2-1.5-4.7-2.4c-3.7-2.1-7.1-4.5-10.3-7.2
		c-6.9-5.9-12.4-13.2-16.3-21.8l-6.4-14.1l-6.4,14.1c-2.9,6.4-6.7,12.1-11.3,17C597.9,367.5,593.9,370.8,589.5,373.7z"/>
</g>
</svg>
